<svg xmlns="http://www.w3.org/2000/svg" width="1080" height="1080" viewBox="0 0 1080 1080" fill="none"><metadata><rdf:RDF xmlns:rdf="http://www.w3.org/1999/02/22-rdf-syntax-ns#" xmlns:dc="http://purl.org/dc/elements/1.1/"><rdf:Description><dc:creator>RealFaviconGenerator</dc:creator><dc:source>https://realfavicongenerator.net</dc:source></rdf:Description></rdf:RDF></metadata><g clip-path="url(#clip0_9_429)">
<path d="M1080 580.5C1080 731.421 1080 806.882 1056.3 866.742C1021.99 953.388 953.388 1021.99 866.742 1056.3C806.881 1080 731.421 1080 580.5 1080H499.5C348.579 1080 273.118 1080 213.258 1056.3C126.612 1021.99 58.0061 953.388 23.7004 866.742C-1.93119e-05 806.881 -1.31742e-05 731.421 1.96942e-08 580.5L7.10094e-06 499.5C2.02949e-05 348.579 2.73585e-05 273.118 23.7005 213.258C58.0062 126.612 126.612 58.0061 213.258 23.7004C273.119 -1.93119e-05 348.579 -1.31743e-05 499.5 1.96758e-08L580.5 7.10091e-06C731.421 2.02949e-05 806.882 2.73585e-05 866.742 23.7005C953.388 58.0062 1021.99 126.612 1056.3 213.258C1080 273.119 1080 348.579 1080 499.5V580.5Z" fill="#234863"></path>
<mask id="mask0_9_429" style="mask-type:alpha" maskUnits="userSpaceOnUse" x="0" y="0" width="1080" height="1080">
<path d="M1080 580.5C1080 731.421 1080 806.882 1056.3 866.742C1021.99 953.388 953.388 1021.99 866.742 1056.3C806.881 1080 731.421 1080 580.5 1080H499.5C348.579 1080 273.118 1080 213.258 1056.3C126.612 1021.99 58.0061 953.388 23.7004 866.742C-1.93119e-05 806.881 -1.31742e-05 731.421 1.96942e-08 580.5L7.10094e-06 499.5C2.02949e-05 348.579 2.73585e-05 273.118 23.7005 213.258C58.0062 126.612 126.612 58.0061 213.258 23.7004C273.119 -1.93119e-05 348.579 -1.31743e-05 499.5 1.96758e-08L580.5 7.10091e-06C731.421 2.02949e-05 806.882 2.73585e-05 866.742 23.7005C953.388 58.0062 1021.99 126.612 1056.3 213.258C1080 273.119 1080 348.579 1080 499.5V580.5Z" fill="#234863"></path>
</mask>
<g mask="url(#mask0_9_429)">
<path d="M567 1049.24V1004.7H758.686V1049.24H689.919V1231.61H635.879V1049.24H567Z" fill="#1F4159"></path>
<path d="M840.3 1234.83C822.508 1234.83 807.153 1231.32 794.233 1224.3C786.512 1220.04 779.858 1214.69 774.27 1208.27C770.562 1204.01 767.324 1199.27 764.556 1194.05C757.69 1180.9 754.257 1165.28 754.257 1147.18C754.257 1129.6 757.727 1114.24 764.666 1101.09C771.606 1087.87 781.388 1077.6 794.012 1070.29C806.636 1062.9 821.511 1059.21 838.639 1059.21C850.746 1059.21 861.82 1061.09 871.86 1064.86C881.9 1068.63 890.575 1074.2 897.883 1081.59C898.914 1082.63 899.913 1083.71 900.879 1084.82C906.763 1091.59 911.449 1099.63 914.937 1108.96C918.997 1119.74 921.027 1132.12 921.027 1146.08V1159.59H773.193V1128.13H870.642C870.568 1122.37 869.202 1117.23 866.545 1112.73C865.648 1111.21 864.638 1109.8 863.515 1108.51C861.308 1105.97 858.664 1103.86 855.582 1102.2C851.004 1099.61 845.726 1098.32 839.746 1098.32C833.693 1098.32 828.266 1099.69 823.468 1102.42C818.669 1105.08 814.867 1108.74 812.062 1113.39C809.257 1117.97 807.78 1123.18 807.632 1129.01V1161.03C807.632 1167.98 808.998 1174.07 811.73 1179.32C812.854 1181.44 814.172 1183.38 815.684 1185.12C817.845 1187.61 820.403 1189.7 823.357 1191.39C828.377 1194.27 834.357 1195.71 841.297 1195.71C846.095 1195.71 850.451 1195.05 854.364 1193.72C858.276 1192.39 861.635 1190.43 864.441 1187.85C867.246 1185.26 869.35 1182.09 870.753 1178.32L920.474 1179.76C918.407 1190.91 913.866 1200.63 906.853 1208.9C899.913 1217.1 890.796 1223.49 879.501 1228.07C868.206 1232.57 855.139 1234.83 840.3 1234.83Z" fill="#1F4159"></path>
<path d="M1028.08 1234.83C1010.14 1234.83 994.751 1231.13 981.905 1223.75C974.48 1219.45 968.053 1214.18 962.624 1207.94C958.715 1203.45 955.323 1198.45 952.449 1192.94C945.583 1179.72 942.15 1164.43 942.15 1147.07C942.15 1129.64 945.583 1114.35 952.449 1101.2C959.389 1087.98 969.244 1077.68 982.016 1070.29C994.861 1062.9 1010.18 1059.21 1027.97 1059.21C1043.7 1059.21 1057.39 1062.05 1069.06 1067.74C1077.65 1071.9 1084.85 1077.33 1090.68 1084.03C1092.81 1086.48 1094.76 1089.1 1096.52 1091.9C1103.16 1102.24 1106.67 1114.39 1107.04 1128.35H1056.43C1055.4 1119.63 1052.44 1112.8 1047.57 1107.85C1042.77 1102.9 1036.5 1100.43 1028.75 1100.43C1022.47 1100.43 1016.97 1102.2 1012.25 1105.75C1007.52 1109.22 1003.83 1114.39 1001.17 1121.26C998.59 1128.05 997.298 1136.47 997.298 1146.52C997.298 1156.56 998.59 1165.06 1001.17 1172C1002.95 1176.59 1005.19 1180.44 1007.88 1183.55C1009.23 1185.09 1010.68 1186.45 1012.25 1187.63C1016.97 1191.1 1022.47 1192.83 1028.75 1192.83C1033.77 1192.83 1038.2 1191.76 1042.04 1189.62C1045.95 1187.48 1049.16 1184.34 1051.67 1180.2C1054.18 1175.99 1055.77 1170.89 1056.43 1164.91H1107.04C1106.52 1178.95 1103.01 1191.21 1096.52 1201.7C1090.1 1212.19 1081.05 1220.35 1069.39 1226.18C1057.8 1231.94 1044.03 1234.83 1028.08 1234.83Z" fill="#1F4159"></path>
<path d="M1188.9 1134.55V1231.61H1134.75V1004.7H1187.13V1092.67H1189.01C1192.85 1082.18 1199.13 1073.98 1207.84 1068.07C1216.62 1062.16 1227.36 1059.21 1240.06 1059.21C1252.02 1059.21 1262.43 1061.87 1271.29 1067.19C1276.18 1070.09 1280.47 1073.65 1284.15 1077.88C1287.13 1081.3 1289.71 1085.16 1291.89 1089.46C1296.83 1099.06 1299.27 1110.29 1299.2 1123.14V1231.61H1245.04V1133.78C1245.12 1124.32 1242.76 1116.94 1237.96 1111.62C1233.16 1106.3 1226.4 1103.64 1217.69 1103.64C1212.01 1103.64 1206.99 1104.9 1202.63 1107.41C1198.35 1109.84 1194.99 1113.35 1192.56 1117.93C1190.19 1122.51 1188.97 1128.05 1188.9 1134.55Z" fill="#1F4159"></path>
<path d="M530.164 984.832H501.372L584.647 757.917H612.995L696.27 984.832H667.478L599.707 793.816H597.935L530.164 984.832ZM540.795 896.194H656.847V920.569H540.795V896.194Z" fill="#1F4159"></path>
<path d="M723.179 984.832V964.889L819.742 840.794V839.021H726.28V814.646H853.406V835.476L759.501 958.684V960.457H856.507V984.832H723.179Z" fill="#1F4159"></path>
<path d="M896.76 984.832V814.646H922.894V984.832H896.76ZM910.048 786.281C904.954 786.281 900.562 784.545 896.871 781.074C896.423 780.645 896.004 780.205 895.612 779.755C892.834 776.56 891.444 772.826 891.444 768.554C891.444 763.678 893.253 759.505 896.871 756.033C900.562 752.562 904.954 750.826 910.048 750.826C915.142 750.826 919.498 752.562 923.115 756.033C923.62 756.508 924.09 756.996 924.526 757.497C927.277 760.66 928.652 764.345 928.652 768.554C928.652 773.429 926.806 777.602 923.115 781.074C919.498 784.545 915.142 786.281 910.048 786.281Z" fill="#1F4159"></path>
<path d="M970.76 984.832V814.646H996.008V841.237H998.223C1001.77 832.152 1007.49 825.098 1015.39 820.075C1023.29 814.978 1032.77 812.43 1043.85 812.43C1055.07 812.43 1064.41 814.978 1071.86 820.075C1075.34 822.391 1078.45 825.139 1081.22 828.32C1084.45 832.036 1087.2 836.342 1089.47 841.237H1091.24C1095.6 832.447 1102.13 825.467 1110.84 820.296C1119.55 815.052 1130 812.43 1142.18 812.43C1157.39 812.43 1169.83 817.194 1179.5 826.723C1189.17 836.178 1194.01 850.914 1194.01 870.931V984.832H1167.87V870.931C1167.87 860.466 1165.49 852.489 1160.72 847C1159.77 845.903 1158.72 844.906 1157.57 844.007C1150.71 838.615 1142.62 835.919 1133.32 835.919C1121.36 835.919 1112.1 839.538 1105.53 846.777C1098.96 853.942 1095.67 863.028 1095.67 874.034V984.832H1069.09V868.272C1069.09 859.752 1066.66 852.692 1061.8 847.092C1061.14 846.333 1060.43 845.6 1059.68 844.894C1053.41 838.911 1045.32 835.919 1035.43 835.919C1028.64 835.919 1022.29 837.729 1016.38 841.348C1010.55 844.968 1005.83 849.99 1002.21 856.417C998.666 862.769 996.894 870.119 996.894 878.466V984.832H970.76Z" fill="#1F4159"></path>
<path d="M1350.42 831.7C1355.62 837.672 1359.57 844.692 1362.27 852.76L1338.8 859.408C1337.32 855.493 1335.14 851.689 1332.26 847.996C1331.85 847.45 1331.43 846.917 1330.98 846.398C1328.32 843.343 1324.91 840.773 1320.75 838.689C1315.87 836.251 1309.63 835.033 1302.03 835.033C1291.62 835.033 1282.95 837.433 1276.01 842.235C1269.14 846.962 1265.71 852.982 1265.71 860.295C1265.71 865.466 1267.2 869.772 1270.19 873.214C1270.96 874.098 1271.83 874.926 1272.8 875.696C1277.52 879.463 1284.9 882.602 1294.94 885.114L1320.19 891.318C1335.4 895.012 1346.73 900.662 1354.19 908.271C1361.64 915.805 1365.37 925.518 1365.37 937.411C1365.37 947.161 1362.57 955.877 1356.96 963.559C1351.42 971.241 1343.67 977.298 1333.7 981.73C1323.74 986.162 1312.14 988.378 1298.93 988.378C1281.58 988.378 1267.22 984.611 1255.85 977.077C1252.05 974.553 1248.71 971.641 1245.83 968.339C1240.13 961.781 1236.27 953.688 1234.26 944.059L1259.06 937.854C1260.68 944.114 1263.28 949.304 1266.86 953.425C1268.51 955.334 1270.38 957.013 1272.46 958.462C1279.11 963.042 1287.78 965.332 1298.49 965.332C1310.67 965.332 1320.34 962.747 1327.5 957.576C1334.73 952.331 1338.35 946.053 1338.35 938.74C1338.35 933.512 1336.73 929.035 1333.5 925.31C1333.08 924.825 1332.63 924.353 1332.15 923.893C1328.02 919.831 1321.67 916.802 1313.1 914.808L1284.76 908.16C1269.18 904.466 1257.74 898.742 1250.43 890.986C1243.19 883.156 1239.57 873.369 1239.57 861.624C1239.57 852.022 1242.27 843.527 1247.66 836.141C1253.12 828.754 1260.54 822.956 1269.92 818.745C1279.37 814.535 1290.07 812.43 1302.03 812.43C1318.86 812.43 1332.08 816.123 1341.67 823.51C1344.9 825.976 1347.82 828.706 1350.42 831.7Z" fill="#1F4159"></path>
<path d="M219.36 305.091H191.011L584.647 757.917H612.995L219.36 305.091Z" fill="#1F4159"></path>
<path d="M204.3 340.99H206.072L599.707 793.816H597.935L204.3 340.99Z" fill="#1F4159"></path>
<path d="M191.011 305.091L107.737 532.007L501.372 984.832L584.647 757.917L191.011 305.091Z" fill="#1F4159"></path>
<path d="M147.159 443.368V467.743L540.795 920.569V896.194L147.159 443.368Z" fill="#1F4159"></path>
<path d="M136.529 532.007L204.3 340.99L597.935 793.816L530.164 984.832L136.529 532.007Z" fill="#1F4159"></path>
<path d="M263.212 443.368H147.159L540.795 896.194H656.847L263.212 443.368Z" fill="#1F4159"></path>
<path d="M107.737 532.007H136.529L530.164 984.832H501.372L107.737 532.007Z" fill="#1F4159"></path>
<path d="M206.072 340.99L273.843 532.007L667.478 984.832L599.707 793.816L206.072 340.99Z" fill="#1F4159"></path>
<path d="M302.634 532.007L219.36 305.091L612.995 757.917L696.27 984.832L302.634 532.007Z" fill="#1F4159"></path>
<path d="M147.159 467.743H263.212L656.847 920.569H540.795L147.159 467.743Z" fill="#1F4159"></path>
<path d="M332.644 361.82V386.196L726.28 839.021V814.646L332.644 361.82Z" fill="#1F4159"></path>
<path d="M263.212 467.743V443.368L656.847 896.194V920.569L263.212 467.743Z" fill="#1F4159"></path>
<path d="M459.771 361.82H332.644L726.28 814.646H853.406L459.771 361.82Z" fill="#1F4159"></path>
<path d="M332.644 386.196H426.107L819.742 839.021H726.28L332.644 386.196Z" fill="#1F4159"></path>
<path d="M173.365 551.871V596.412L567 1049.24V1004.7L173.365 551.871Z" fill="#1F4159"></path>
<path d="M516.413 298C511.319 298 506.926 299.736 503.235 303.208L896.871 756.033C900.562 752.562 904.954 750.826 910.048 750.826L516.413 298Z" fill="#1F4159"></path>
<path d="M503.235 303.208C499.618 306.679 497.809 310.853 497.809 315.728L891.444 768.554C891.444 763.678 893.253 759.505 896.871 756.033L503.235 303.208Z" fill="#1F4159"></path>
<path d="M529.48 303.208C525.862 299.736 521.507 298 516.413 298L910.048 750.826C915.142 750.826 919.498 752.562 923.115 756.033L529.48 303.208Z" fill="#1F4159"></path>
<path d="M497.809 315.728C497.809 320 499.198 323.734 501.977 326.929L895.606 779.747C892.831 776.554 891.444 772.823 891.444 768.554L497.809 315.728Z" fill="#1F4159"></path>
<path d="M426.107 386.196V387.968L819.742 840.794V839.021L426.107 386.196Z" fill="#1F4159"></path>
<path d="M501.977 326.929C502.369 327.379 502.788 327.819 503.235 328.248L896.871 781.074C896.423 780.645 896.004 780.205 895.612 779.755L501.977 326.929Z" fill="#1F4159"></path>
<path d="M530.891 304.671C530.455 304.17 529.985 303.682 529.48 303.208L923.115 756.033C923.62 756.508 924.09 756.996 924.526 757.497L530.891 304.671Z" fill="#1F4159"></path>
<path d="M459.771 382.65V361.82L853.406 814.646V835.476L459.771 382.65Z" fill="#1F4159"></path>
<path d="M535.017 315.728C535.017 311.523 533.644 307.84 530.897 304.679L924.526 757.497C927.277 760.66 928.652 764.345 928.652 768.554L535.017 315.728Z" fill="#1F4159"></path>
<path d="M503.235 328.248C506.926 331.72 511.319 333.456 516.413 333.456L910.048 786.281C904.954 786.281 900.562 784.545 896.871 781.074L503.235 328.248Z" fill="#1F4159"></path>
<path d="M173.365 596.412H242.243L635.879 1049.24H567L173.365 596.412Z" fill="#1F4159"></path>
<path d="M426.107 387.968L329.544 512.063L723.179 964.889L819.742 840.794L426.107 387.968Z" fill="#1F4159"></path>
<path d="M273.843 532.007H302.634L696.27 984.832H667.478L273.843 532.007Z" fill="#1F4159"></path>
<path d="M529.48 328.248C533.171 324.776 535.017 320.603 535.017 315.728L928.652 768.554C928.652 773.429 926.807 777.602 923.115 781.074L529.48 328.248Z" fill="#1F4159"></path>
<path d="M516.413 333.456C521.507 333.456 525.862 331.72 529.48 328.248L923.115 781.074C919.498 784.545 915.142 786.281 910.048 786.281L516.413 333.456Z" fill="#1F4159"></path>
<path d="M365.051 551.871H173.365L567 1004.7H758.686L365.051 551.871Z" fill="#1F4159"></path>
<path d="M365.865 505.858L459.771 382.65L853.406 835.476L759.501 958.684L365.865 505.858Z" fill="#1F4159"></path>
<path d="M329.544 512.063V532.007L723.179 984.832V964.889L329.544 512.063Z" fill="#1F4159"></path>
<path d="M529.258 361.82H503.124L896.76 814.646H922.894L529.258 361.82Z" fill="#1F4159"></path>
<path d="M365.865 507.631V505.858L759.501 958.684V960.457L365.865 507.631Z" fill="#1F4159"></path>
<path d="M462.871 507.631H365.865L759.501 960.457H856.507L462.871 507.631Z" fill="#1F4159"></path>
<path d="M602.373 361.82H577.125L970.76 814.646H996.008L602.373 361.82Z" fill="#1F4159"></path>
<path d="M329.544 532.007H462.871L856.507 984.832H723.179L329.544 532.007Z" fill="#1F4159"></path>
<path d="M296.283 596.412H365.051L758.686 1049.24H689.919L296.283 596.412Z" fill="#1F4159"></path>
<path d="M503.124 361.82V532.007L896.76 984.832V814.646L503.124 361.82Z" fill="#1F4159"></path>
<path d="M365.051 596.412V551.871L758.686 1004.7V1049.24L365.051 596.412Z" fill="#1F4159"></path>
<path d="M242.243 596.412V778.787L635.879 1231.61V1049.24L242.243 596.412Z" fill="#1F4159"></path>
<path d="M602.373 388.412V361.82L996.008 814.646V841.237L602.373 388.412Z" fill="#1F4159"></path>
<path d="M529.258 532.007V361.82L922.894 814.646V984.832L529.258 532.007Z" fill="#1F4159"></path>
<path d="M621.752 367.249C613.852 372.272 608.131 379.326 604.587 388.412L998.223 841.237C1001.77 832.152 1007.49 825.098 1015.39 820.075L621.752 367.249Z" fill="#1F4159"></path>
<path d="M604.587 388.412H602.373L996.008 841.237H998.223L604.587 388.412Z" fill="#1F4159"></path>
<path d="M650.211 359.604C639.137 359.604 629.651 362.152 621.752 367.249L1015.39 820.075C1023.29 814.978 1032.77 812.43 1043.85 812.43L650.211 359.604Z" fill="#1F4159"></path>
<path d="M462.871 532.007V507.631L856.507 960.457V984.832L462.871 532.007Z" fill="#1F4159"></path>
<path d="M608.574 403.591C612.191 397.165 616.916 392.142 622.748 388.522L1016.38 841.348C1010.55 844.968 1005.83 849.99 1002.21 856.417L608.574 403.591Z" fill="#1F4159"></path>
<path d="M622.748 388.522C628.654 384.903 635.003 383.093 641.795 383.093L1035.43 835.919C1028.64 835.919 1022.29 837.729 1016.38 841.348L622.748 388.522Z" fill="#1F4159"></path>
<path d="M678.228 367.249C670.771 362.152 661.433 359.604 650.211 359.604L1043.85 812.43C1055.07 812.43 1064.41 814.978 1071.86 820.075L678.228 367.249Z" fill="#1F4159"></path>
<path d="M603.259 425.64C603.259 417.293 605.03 409.944 608.574 403.591L1002.21 856.417C998.666 862.769 996.894 870.119 996.894 878.466L603.259 425.64Z" fill="#1F4159"></path>
<path d="M296.283 778.787V596.412L689.919 1049.24V1231.61L296.283 778.787Z" fill="#1F4159"></path>
<path d="M577.125 361.82V532.007L970.76 984.832V814.646L577.125 361.82Z" fill="#1F4159"></path>
<path d="M641.795 383.093C651.688 383.093 659.772 386.085 666.047 392.068L1059.68 844.894C1053.41 838.911 1045.32 835.919 1035.43 835.919L641.795 383.093Z" fill="#1F4159"></path>
<path d="M687.586 375.494C684.82 372.314 681.7 369.565 678.228 367.249L1071.86 820.075C1075.34 822.391 1078.45 825.139 1081.22 828.32L687.586 375.494Z" fill="#1F4159"></path>
<path d="M400.376 617.464C387.752 624.777 377.97 635.044 371.031 648.266L764.666 1101.09C771.606 1087.87 781.388 1077.6 794.012 1070.29L400.376 617.464Z" fill="#1F4159"></path>
<path d="M666.047 392.068C666.796 392.774 667.501 393.507 668.161 394.267L1061.79 847.082C1061.13 846.326 1060.43 845.596 1059.68 844.894L666.047 392.068Z" fill="#1F4159"></path>
<path d="M445.003 606.384C427.876 606.384 413 610.077 400.376 617.464L794.012 1070.29C806.636 1062.9 821.511 1059.21 838.639 1059.21L445.003 606.384Z" fill="#1F4159"></path>
<path d="M503.124 532.007H529.258L922.894 984.832H896.76L503.124 532.007Z" fill="#1F4159"></path>
<path d="M695.835 388.412C693.571 383.524 690.827 379.225 687.602 375.513L1081.22 828.32C1084.45 832.036 1087.2 836.342 1089.47 841.237L695.835 388.412Z" fill="#1F4159"></path>
<path d="M668.161 394.267C673.027 399.866 675.459 406.926 675.459 415.447L1069.09 868.272C1069.09 859.752 1066.66 852.692 1061.8 847.092L668.161 394.267Z" fill="#1F4159"></path>
<path d="M371.031 648.266C364.091 661.414 360.622 676.778 360.622 694.358L754.257 1147.18C754.257 1129.6 757.727 1114.24 764.666 1101.09L371.031 648.266Z" fill="#1F4159"></path>
<path d="M717.207 367.471C708.496 372.641 701.962 379.622 697.607 388.412L1091.24 841.237C1095.6 832.447 1102.13 825.467 1110.84 820.296L717.207 367.471Z" fill="#1F4159"></path>
<path d="M697.607 388.412H695.835L1089.47 841.237H1091.24L697.607 388.412Z" fill="#1F4159"></path>
<path d="M748.546 359.604C736.365 359.604 725.919 362.226 717.207 367.471L1110.84 820.296C1119.55 815.052 1130 812.43 1142.18 812.43L748.546 359.604Z" fill="#1F4159"></path>
<path d="M603.259 532.007V425.64L996.894 878.466V984.832L603.259 532.007Z" fill="#1F4159"></path>
<path d="M478.225 612.035C468.184 608.268 457.111 606.384 445.003 606.384L838.639 1059.21C850.746 1059.21 861.82 1061.09 871.86 1064.86L478.225 612.035Z" fill="#1F4159"></path>
<path d="M242.243 778.787H296.283L689.919 1231.61H635.879L242.243 778.787Z" fill="#1F4159"></path>
<path d="M711.892 393.952C718.462 386.713 727.727 383.093 739.687 383.093L1133.32 835.919C1121.36 835.919 1112.1 839.539 1105.53 846.777L711.892 393.952Z" fill="#1F4159"></path>
<path d="M379.558 675.301V706.768L773.193 1159.59V1128.13L379.558 675.301Z" fill="#1F4159"></path>
<path d="M702.036 421.208C702.036 410.202 705.322 401.117 711.892 393.952L1105.53 846.777C1098.96 853.942 1095.67 863.028 1095.67 874.034L702.036 421.208Z" fill="#1F4159"></path>
<path d="M418.426 660.565C421.232 655.911 425.034 652.255 429.832 649.596L823.468 1102.42C818.669 1105.08 814.867 1108.74 812.062 1113.39L418.426 660.565Z" fill="#1F4159"></path>
<path d="M429.832 649.596C434.631 646.863 440.057 645.496 446.111 645.496L839.746 1098.32C833.693 1098.32 828.266 1099.69 823.468 1102.42L429.832 649.596Z" fill="#1F4159"></path>
<path d="M413.997 676.187C414.145 670.352 415.621 665.144 418.426 660.565L812.062 1113.39C809.257 1117.97 807.78 1123.18 807.632 1129.01L413.997 676.187Z" fill="#1F4159"></path>
<path d="M785.864 373.897C776.193 364.368 763.754 359.604 748.546 359.604L1142.18 812.43C1157.39 812.43 1169.83 817.194 1179.5 826.723L785.864 373.897Z" fill="#1F4159"></path>
<path d="M360.622 694.358C360.622 712.455 364.054 728.078 370.92 741.226L764.556 1194.05C757.69 1180.9 754.257 1165.28 754.257 1147.18L360.622 694.358Z" fill="#1F4159"></path>
<path d="M739.687 383.093C748.989 383.093 757.073 385.789 763.938 391.182L1157.57 844.007C1150.71 838.615 1142.62 835.919 1133.32 835.919L739.687 383.093Z" fill="#1F4159"></path>
<path d="M446.111 645.496C452.091 645.496 457.369 646.789 461.946 649.374L855.582 1102.2C851.004 1099.61 845.726 1098.32 839.746 1098.32L446.111 645.496Z" fill="#1F4159"></path>
<path d="M577.125 532.007H603.259L996.894 984.832H970.76L577.125 532.007Z" fill="#1F4159"></path>
<path d="M504.248 628.766C496.939 621.379 488.265 615.802 478.225 612.035L871.86 1064.86C881.9 1068.63 890.575 1074.2 897.883 1081.59L504.248 628.766Z" fill="#1F4159"></path>
<path d="M477.006 675.301H379.558L773.193 1128.13H870.642L477.006 675.301Z" fill="#1F4159"></path>
<path d="M413.997 708.208V676.187L807.632 1129.01V1161.03L413.997 708.208Z" fill="#1F4159"></path>
<path d="M461.946 649.374C465.028 651.038 467.673 653.14 469.879 655.68L863.505 1108.49C861.3 1105.96 858.659 1103.86 855.582 1102.2L461.946 649.374Z" fill="#1F4159"></path>
<path d="M763.938 391.182C765.082 392.08 766.131 393.078 767.084 394.175L1160.71 846.992C1159.76 845.898 1158.71 844.903 1157.57 844.007L763.938 391.182Z" fill="#1F4159"></path>
<path d="M675.459 415.447V532.007L1069.09 984.832V868.272L675.459 415.447Z" fill="#1F4159"></path>
<path d="M469.879 655.68C471.003 656.973 472.013 658.38 472.909 659.9L866.545 1112.73C865.648 1111.21 864.638 1109.8 863.515 1108.51L469.879 655.68Z" fill="#1F4159"></path>
<path d="M507.244 631.995C506.277 630.884 505.279 629.807 504.248 628.766L897.883 1081.59C898.914 1082.63 899.913 1083.71 900.879 1084.82L507.244 631.995Z" fill="#1F4159"></path>
<path d="M370.92 741.226C373.688 746.442 376.927 751.181 380.635 755.444L774.245 1208.24C770.547 1203.99 767.318 1199.26 764.556 1194.05L370.92 741.226Z" fill="#1F4159"></path>
<path d="M767.084 394.175C771.853 399.663 774.237 407.64 774.237 418.106L1167.87 870.931C1167.87 860.466 1165.49 852.489 1160.72 847L767.084 394.175Z" fill="#1F4159"></path>
<path d="M418.094 726.49C415.363 721.245 413.997 715.152 413.997 708.208L807.632 1161.03C807.632 1167.98 808.998 1174.07 811.73 1179.32L418.094 726.49Z" fill="#1F4159"></path>
<path d="M472.909 659.9C475.567 664.406 476.933 669.539 477.006 675.301L870.642 1128.13C870.568 1122.37 869.202 1117.23 866.545 1112.73L472.909 659.9Z" fill="#1F4159"></path>
<path d="M785.864 373.897C787.354 375.354 788.729 376.935 789.99 378.642L1179.5 826.723C1189.17 836.178 1194.01 850.914 1194.01 870.931L800.371 418.106C800.371 401.172 796.911 388.017 789.99 378.642L785.864 373.897Z" fill="#1F4159"></path>
<path d="M702.036 532.007V421.208L1095.67 874.034V984.832L702.036 532.007Z" fill="#1F4159"></path>
<path d="M521.301 656.133C517.819 646.819 513.141 638.783 507.268 632.023L900.879 1084.82C906.763 1091.59 911.449 1099.63 914.937 1108.96L521.301 656.133Z" fill="#1F4159"></path>
<path d="M422.048 732.292C420.537 730.552 419.218 728.618 418.094 726.49L811.73 1179.32C812.854 1181.44 814.172 1183.38 815.684 1185.12L422.048 732.292Z" fill="#1F4159"></path>
<path d="M379.558 706.768H527.392L921.027 1159.59H773.193L379.558 706.768Z" fill="#1F4159"></path>
<path d="M380.635 755.444C386.222 761.869 392.876 767.212 400.598 771.474L794.233 1224.3C786.512 1220.04 779.858 1214.69 774.27 1208.27L380.635 755.444Z" fill="#1F4159"></path>
<path d="M429.722 738.567C426.772 736.875 424.218 734.787 422.059 732.304L815.684 1185.12C817.845 1187.61 820.403 1189.7 823.357 1191.39L429.722 738.567Z" fill="#1F4159"></path>
<path d="M447.661 742.888C440.722 742.888 434.742 741.448 429.722 738.567L823.357 1191.39C828.377 1194.27 834.357 1195.71 841.297 1195.71L447.661 742.888Z" fill="#1F4159"></path>
<path d="M876.281 365.92C866.906 370.13 859.486 375.928 854.023 383.315L1247.66 836.141C1253.12 828.754 1260.54 822.956 1269.92 818.745L876.281 365.92Z" fill="#1F4159"></path>
<path d="M527.392 693.25C527.392 679.29 525.362 666.917 521.301 656.133L914.937 1108.96C918.997 1119.74 921.027 1132.12 921.027 1146.08L527.392 693.25Z" fill="#1F4159"></path>
<path d="M675.459 532.007H702.036L1095.67 984.832H1069.09L675.459 532.007Z" fill="#1F4159"></path>
<path d="M588.38 617.464C575.609 624.851 565.753 635.155 558.814 648.377L952.449 1101.2C959.389 1087.98 969.244 1077.68 982.016 1070.29L588.38 617.464Z" fill="#1F4159"></path>
<path d="M854.023 383.315C848.634 390.702 845.939 399.196 845.939 408.799L1239.57 861.624C1239.57 852.022 1242.27 843.527 1247.66 836.141L854.023 383.315Z" fill="#1F4159"></path>
<path d="M460.728 740.894C456.815 742.223 452.46 742.888 447.661 742.888L841.297 1195.71C846.095 1195.71 850.451 1195.05 854.364 1193.72L460.728 740.894Z" fill="#1F4159"></path>
<path d="M908.395 359.604C896.436 359.604 885.731 361.709 876.281 365.92L1269.92 818.745C1279.37 814.535 1290.07 812.43 1302.03 812.43L908.395 359.604Z" fill="#1F4159"></path>
<path d="M477.117 725.493C475.715 729.26 473.611 732.436 470.805 735.021L864.441 1187.85C867.246 1185.26 869.35 1182.09 870.753 1178.32L477.117 725.493Z" fill="#1F4159"></path>
<path d="M470.805 735.021C468 737.607 464.641 739.564 460.728 740.894L854.364 1193.72C858.276 1192.39 861.635 1190.43 864.441 1187.85L470.805 735.021Z" fill="#1F4159"></path>
<path d="M634.336 606.384C616.545 606.384 601.226 610.077 588.38 617.464L982.016 1070.29C994.861 1062.9 1010.18 1059.21 1027.97 1059.21L634.336 606.384Z" fill="#1F4159"></path>
<path d="M400.598 771.474C413.517 778.491 428.873 782 446.664 782L840.3 1234.83C822.508 1234.83 807.152 1231.32 794.233 1224.3L400.598 771.474Z" fill="#1F4159"></path>
<path d="M774.237 418.106V532.007L1167.87 984.832V870.931L774.237 418.106Z" fill="#1F4159"></path>
<path d="M558.814 648.377C551.948 661.525 548.515 676.815 548.515 694.247L942.15 1147.07C942.15 1129.64 945.583 1114.35 952.449 1101.2L558.814 648.377Z" fill="#1F4159"></path>
<path d="M527.392 706.768V693.25L921.027 1146.08V1159.59L527.392 706.768Z" fill="#1F4159"></path>
<path d="M872.073 407.469C872.073 400.156 875.506 394.136 882.372 389.409L1276.01 842.235C1269.14 846.962 1265.71 852.982 1265.71 860.295L872.073 407.469Z" fill="#1F4159"></path>
<path d="M526.838 726.933L477.117 725.493L870.753 1178.32L920.474 1179.76L526.838 726.933Z" fill="#1F4159"></path>
<path d="M856.792 438.16C849.557 430.33 845.939 420.543 845.939 408.799L1239.57 861.624C1239.57 872.423 1242.63 881.567 1248.75 889.055L1250.43 890.986C1249.84 890.355 1249.28 889.712 1248.75 889.055L856.792 438.16Z" fill="#1F4159"></path>
<path d="M882.372 389.409C889.312 384.608 897.986 382.207 908.395 382.207L1302.03 835.033C1291.62 835.033 1282.95 837.433 1276.01 842.235L882.372 389.409Z" fill="#1F4159"></path>
<path d="M800.371 532.007V418.106L1194.01 870.931V984.832L800.371 532.007Z" fill="#1F4159"></path>
<path d="M948.039 370.684C938.442 363.297 925.227 359.604 908.395 359.604L1302.03 812.43C1318.86 812.43 1332.08 816.123 1341.67 823.51L948.039 370.684Z" fill="#1F4159"></path>
<path d="M876.559 420.388C873.568 416.946 872.073 412.64 872.073 407.469L1265.71 860.295C1265.71 865.466 1267.2 869.772 1270.19 873.214L876.559 420.388Z" fill="#1F4159"></path>
<path d="M675.42 614.916C663.756 609.228 650.061 606.384 634.336 606.384L1027.97 1059.21C1043.7 1059.21 1057.39 1062.05 1069.06 1067.74L675.42 614.916Z" fill="#1F4159"></path>
<path d="M908.395 382.207C915.999 382.207 922.237 383.426 927.11 385.863L1320.75 838.689C1315.87 836.251 1309.63 835.033 1302.03 835.033L908.395 382.207Z" fill="#1F4159"></path>
<path d="M446.664 782C461.503 782 474.57 779.747 485.865 775.241L879.501 1228.07C868.206 1232.57 855.139 1234.83 840.3 1234.83L446.664 782Z" fill="#1F4159"></path>
<path d="M879.161 422.87C878.197 422.102 877.331 421.276 876.564 420.394L1270.19 873.214C1270.96 874.098 1271.83 874.926 1272.8 875.696L879.161 422.87Z" fill="#1F4159"></path>
<path d="M513.218 756.073C520.231 747.8 524.771 738.087 526.838 726.933L920.474 1179.76C918.407 1190.91 913.866 1200.63 906.853 1208.9L513.218 756.073Z" fill="#1F4159"></path>
<path d="M607.538 668.431C610.196 661.562 613.887 656.391 618.612 652.92L1012.25 1105.75C1007.52 1109.22 1003.83 1114.39 1001.17 1121.26L607.538 668.431Z" fill="#1F4159"></path>
<path d="M618.612 652.92C623.337 649.374 628.837 647.601 635.112 647.601L1028.75 1100.43C1022.47 1100.43 1016.97 1102.2 1012.25 1105.75L618.612 652.92Z" fill="#1F4159"></path>
<path d="M548.515 694.247C548.515 711.606 551.948 726.896 558.814 740.118L952.449 1192.94C945.583 1179.72 942.15 1164.43 942.15 1147.07L548.515 694.247Z" fill="#1F4159"></path>
<path d="M485.865 775.241C497.161 770.662 506.278 764.272 513.218 756.073L906.853 1208.9C899.913 1217.1 890.796 1223.49 879.501 1228.07L485.865 775.241Z" fill="#1F4159"></path>
<path d="M927.11 385.863C931.275 387.947 934.685 390.517 937.34 393.573L1330.97 846.387C1328.31 843.336 1324.91 840.77 1320.75 838.689L927.11 385.863Z" fill="#1F4159"></path>
<path d="M901.308 432.288C891.268 429.776 883.885 426.637 879.161 422.87L1272.8 875.696C1277.52 879.463 1284.9 882.602 1294.94 885.114L901.308 432.288Z" fill="#1F4159"></path>
<path d="M956.789 378.875C954.185 375.881 951.269 373.151 948.039 370.684L1341.67 823.51C1344.9 825.976 1347.82 828.706 1350.42 831.7L956.789 378.875Z" fill="#1F4159"></path>
<path d="M856.792 438.16C864.1 445.916 875.543 451.641 891.12 455.334L1284.76 908.16C1269.18 904.466 1257.74 898.742 1250.43 890.986L856.792 438.16Z" fill="#1F4159"></path>
<path d="M603.662 693.693C603.662 683.648 604.954 675.227 607.538 668.431L1001.17 1121.26C998.59 1128.05 997.298 1136.47 997.298 1146.52L603.662 693.693Z" fill="#1F4159"></path>
<path d="M937.34 393.573C937.791 394.091 938.219 394.624 938.626 395.17L1332.26 847.996C1331.85 847.45 1331.43 846.917 1330.98 846.398L937.34 393.573Z" fill="#1F4159"></path>
<path d="M635.112 647.601C642.863 647.601 649.138 650.076 653.937 655.025L1047.57 1107.85C1042.77 1102.9 1036.5 1100.43 1028.75 1100.43L635.112 647.601Z" fill="#1F4159"></path>
<path d="M774.237 532.007H800.371L1194.01 984.832H1167.87L774.237 532.007Z" fill="#1F4159"></path>
<path d="M793.494 551.871H741.115L1134.75 1004.7H1187.13L793.494 551.871Z" fill="#1F4159"></path>
<path d="M697.04 631.202C691.218 624.507 684.011 619.078 675.42 614.916L1069.06 1067.74C1077.65 1071.9 1084.85 1077.33 1090.68 1084.03L697.04 631.202Z" fill="#1F4159"></path>
<path d="M938.626 395.17C941.506 398.864 943.683 402.668 945.16 406.583L1338.8 859.408C1337.32 855.493 1335.14 851.689 1332.26 847.996L938.626 395.17Z" fill="#1F4159"></path>
<path d="M968.636 399.935C965.935 391.876 961.993 384.864 956.809 378.897L1350.42 831.7C1355.62 837.672 1359.57 844.692 1362.27 852.76L968.636 399.935Z" fill="#1F4159"></path>
<path d="M865.429 485.028L840.624 491.233L1234.26 944.059L1259.06 937.854L865.429 485.028Z" fill="#1F4159"></path>
<path d="M926.556 438.493L901.308 432.288L1294.94 885.114L1320.19 891.318L926.556 438.493Z" fill="#1F4159"></path>
<path d="M607.538 719.177C604.954 712.234 603.662 703.739 603.662 693.693L997.298 1146.52C997.298 1156.56 998.59 1165.06 1001.17 1172L607.538 719.177Z" fill="#1F4159"></path>
<path d="M945.16 406.583L968.636 399.935L1362.27 852.76L1338.8 859.408L945.16 406.583Z" fill="#1F4159"></path>
<path d="M662.796 675.523C661.928 668.204 659.707 662.213 656.133 657.551L653.937 655.025C654.718 655.818 655.45 656.66 656.133 657.551L1047.57 1107.85C1052.44 1112.8 1055.4 1119.63 1056.43 1128.35L662.796 675.523Z" fill="#1F4159"></path>
<path d="M558.814 740.118C561.688 745.622 565.079 750.621 568.988 755.116L962.597 1207.91C958.699 1203.42 955.317 1198.44 952.449 1192.94L558.814 740.118Z" fill="#1F4159"></path>
<path d="M840.624 491.233C842.637 500.862 846.495 508.955 852.199 515.513L1245.82 968.321C1240.12 961.766 1236.27 953.679 1234.26 944.059L840.624 491.233Z" fill="#1F4159"></path>
<path d="M702.883 639.07C701.127 636.287 699.187 633.672 697.062 631.227L1090.68 1084.03C1092.81 1086.48 1094.76 1089.1 1096.52 1091.9L702.883 639.07Z" fill="#1F4159"></path>
<path d="M891.12 455.334L919.469 461.982L1313.1 914.808L1284.76 908.16L891.12 455.334Z" fill="#1F4159"></path>
<path d="M873.221 500.599C869.641 496.478 867.044 491.288 865.429 485.028L1259.06 937.854C1260.68 944.114 1263.28 949.304 1266.86 953.425L873.221 500.599Z" fill="#1F4159"></path>
<path d="M614.249 730.721C611.551 727.615 609.314 723.767 607.538 719.177L1001.17 1172C1002.95 1176.59 1005.19 1180.44 1007.88 1183.55L614.249 730.721Z" fill="#1F4159"></path>
<path d="M878.828 505.637C876.753 504.19 874.888 502.515 873.232 500.612L1266.86 953.425C1268.51 955.334 1270.38 957.013 1272.46 958.462L878.828 505.637Z" fill="#1F4159"></path>
<path d="M852.199 515.513C855.07 518.815 858.41 521.728 862.218 524.251L1255.85 977.077C1252.05 974.553 1248.71 971.641 1245.83 968.339L852.199 515.513Z" fill="#1F4159"></path>
<path d="M568.988 755.115C574.417 761.357 580.844 766.626 588.27 770.92L981.905 1223.75C974.48 1219.45 968.053 1214.18 962.624 1207.94L568.988 755.115Z" fill="#1F4159"></path>
<path d="M960.552 455.445C953.096 447.837 941.764 442.186 926.556 438.493L1320.19 891.318C1335.4 895.012 1346.73 900.662 1354.19 908.271L960.552 455.445Z" fill="#1F4159"></path>
<path d="M618.612 734.8C617.048 733.626 615.597 732.271 614.26 730.733L1007.88 1183.55C1009.23 1185.09 1010.68 1186.45 1012.25 1187.63L618.612 734.8Z" fill="#1F4159"></path>
<path d="M713.403 675.523C713.034 661.562 709.527 649.411 702.883 639.07L1096.52 1091.9C1103.16 1102.24 1106.67 1114.39 1107.04 1128.35L713.403 675.523Z" fill="#1F4159"></path>
<path d="M662.796 675.523H713.403L1107.04 1128.35H1056.43L662.796 675.523Z" fill="#1F4159"></path>
<path d="M919.469 461.982C928.033 463.976 934.382 467.005 938.516 471.067L1332.15 923.893C1328.02 919.831 1321.67 916.802 1313.1 914.808L919.469 461.982Z" fill="#1F4159"></path>
<path d="M635.112 740.007C628.837 740.007 623.337 738.271 618.612 734.8L1012.25 1187.63C1016.97 1191.1 1022.47 1192.83 1028.75 1192.83L635.112 740.007Z" fill="#1F4159"></path>
<path d="M904.852 512.506C894.147 512.506 885.473 510.216 878.828 505.637L1272.46 958.462C1279.11 963.042 1287.78 965.332 1298.49 965.332L904.852 512.506Z" fill="#1F4159"></path>
<path d="M793.494 639.845V551.871L1187.13 1004.7V1092.67L793.494 639.845Z" fill="#1F4159"></path>
<path d="M938.516 471.067C938.992 471.527 939.441 471.999 939.862 472.484L1333.49 925.302C1333.07 924.82 1332.62 924.35 1332.15 923.893L938.516 471.067Z" fill="#1F4159"></path>
<path d="M662.796 712.086C662.132 718.069 660.544 723.166 658.034 727.376L1051.67 1180.2C1054.18 1175.99 1055.77 1170.89 1056.43 1164.91L662.796 712.086Z" fill="#1F4159"></path>
<path d="M648.4 736.794C644.561 738.936 640.132 740.007 635.112 740.007L1028.75 1192.83C1033.77 1192.83 1038.2 1191.76 1042.04 1189.62L648.4 736.794Z" fill="#1F4159"></path>
<path d="M862.218 524.251C873.587 531.785 887.946 535.552 905.295 535.552L1298.93 988.378C1281.58 988.378 1267.22 984.611 1255.85 977.076L862.218 524.251Z" fill="#1F4159"></path>
<path d="M939.862 472.484C943.099 476.209 944.717 480.686 944.717 485.914L1338.35 938.74C1338.35 933.512 1336.73 929.035 1333.5 925.31L939.862 472.484Z" fill="#1F4159"></path>
<path d="M658.034 727.376C655.524 731.513 652.313 734.652 648.4 736.794L1042.04 1189.62C1045.95 1187.48 1049.16 1184.34 1051.67 1180.2L658.034 727.376Z" fill="#1F4159"></path>
<path d="M933.865 504.75C926.704 509.921 917.033 512.506 904.852 512.506L1298.49 965.332C1310.67 965.332 1320.34 962.747 1327.5 957.576L933.865 504.75Z" fill="#1F4159"></path>
<path d="M588.27 770.92C601.115 778.307 616.508 782 634.447 782L1028.08 1234.83C1010.14 1234.83 994.751 1231.13 981.905 1223.75L588.27 770.92Z" fill="#1F4159"></path>
<path d="M741.115 551.871V778.787L1134.75 1231.61V1004.7L741.115 551.871Z" fill="#1F4159"></path>
<path d="M960.552 455.445C961.755 456.66 962.861 457.932 963.869 459.261L1354.19 908.271C1361.64 915.805 1365.37 925.518 1365.37 937.411L971.737 484.585C971.737 474.611 969.114 466.169 963.869 459.261L960.552 455.445Z" fill="#1F4159"></path>
<path d="M713.403 712.086H662.796L1056.43 1164.91H1107.04L713.403 712.086Z" fill="#1F4159"></path>
<path d="M944.717 485.914C944.717 493.227 941.099 499.506 933.865 504.75L1327.5 957.576C1334.73 952.331 1338.35 946.053 1338.35 938.74L944.717 485.914Z" fill="#1F4159"></path>
<path d="M814.202 615.248C805.49 621.157 799.215 629.356 795.376 639.845L1189.01 1092.67C1192.85 1082.18 1199.13 1073.98 1207.84 1068.07L814.202 615.248Z" fill="#1F4159"></path>
<path d="M795.376 639.845H793.494L1187.13 1092.67H1189.01L795.376 639.845Z" fill="#1F4159"></path>
<path d="M846.426 606.384C833.728 606.384 822.987 609.339 814.202 615.248L1207.84 1068.07C1216.62 1062.16 1227.36 1059.21 1240.06 1059.21L846.426 606.384Z" fill="#1F4159"></path>
<path d="M905.295 535.552C918.509 535.552 930.1 533.336 940.066 528.904L1333.7 981.73C1323.74 986.162 1312.14 988.378 1298.93 988.378L905.295 535.552Z" fill="#1F4159"></path>
<path d="M963.321 510.733C968.932 503.051 971.737 494.335 971.737 484.585L1365.37 937.411C1365.37 947.161 1362.57 955.877 1356.96 963.559L963.321 510.733Z" fill="#1F4159"></path>
<path d="M702.883 748.871C709.379 738.382 712.886 726.121 713.403 712.086L1107.04 1164.91C1106.52 1178.95 1103.01 1191.21 1096.52 1201.7L702.883 748.871Z" fill="#1F4159"></path>
<path d="M940.066 528.904C950.032 524.472 957.784 518.415 963.321 510.733L1356.96 963.559C1351.42 971.241 1343.67 977.298 1333.7 981.73L940.066 528.904Z" fill="#1F4159"></path>
<path d="M634.447 782C650.393 782 664.162 779.119 675.752 773.358L1069.39 1226.18C1057.8 1231.94 1044.03 1234.83 1028.08 1234.83L634.447 782Z" fill="#1F4159"></path>
<path d="M798.92 665.107C801.356 660.528 804.715 657.019 808.997 654.582L1202.63 1107.41C1198.35 1109.84 1194.99 1113.35 1192.56 1117.93L798.92 665.107Z" fill="#1F4159"></path>
<path d="M877.654 614.362C868.795 609.043 858.386 606.384 846.426 606.384L1240.06 1059.21C1252.02 1059.21 1262.43 1061.87 1271.29 1067.19L877.654 614.362Z" fill="#1F4159"></path>
<path d="M675.752 773.358C687.417 767.522 696.46 759.36 702.883 748.871L1096.52 1201.7C1090.1 1212.19 1081.05 1220.35 1069.39 1226.18L675.752 773.358Z" fill="#1F4159"></path>
<path d="M808.997 654.582C813.353 652.07 818.373 650.814 824.057 650.814L1217.69 1103.64C1212.01 1103.64 1206.99 1104.9 1202.63 1107.41L808.997 654.582Z" fill="#1F4159"></path>
<path d="M795.266 681.727C795.339 675.227 796.557 669.687 798.92 665.107L1192.56 1117.93C1190.19 1122.51 1188.97 1128.05 1188.9 1134.55L795.266 681.727Z" fill="#1F4159"></path>
<path d="M824.057 650.814C832.768 650.814 839.523 653.474 844.322 658.792L1237.96 1111.62C1233.16 1106.3 1226.4 1103.64 1217.69 1103.64L824.057 650.814Z" fill="#1F4159"></path>
<path d="M890.514 625.052C886.836 620.823 882.55 617.26 877.654 614.362L1271.29 1067.19C1276.18 1070.09 1280.47 1073.65 1284.15 1077.88L890.514 625.052Z" fill="#1F4159"></path>
<path d="M851.409 680.952C851.48 671.889 849.312 664.726 844.906 659.464L844.322 658.792C844.521 659.012 844.716 659.236 844.906 659.464L1237.96 1111.62C1242.76 1116.94 1245.12 1124.32 1245.04 1133.78L851.409 680.952Z" fill="#1F4159"></path>
<path d="M898.251 636.632C896.076 632.345 893.503 628.492 890.533 625.073L1284.15 1077.88C1287.13 1081.3 1289.71 1085.16 1291.89 1089.46L898.251 636.632Z" fill="#1F4159"></path>
<path d="M795.266 778.787V681.727L1188.9 1134.55V1231.61L795.266 778.787Z" fill="#1F4159"></path>
<path d="M905.56 670.315C905.634 657.462 903.197 646.235 898.251 636.632L1291.89 1089.46C1296.83 1099.06 1299.27 1110.29 1299.2 1123.14L905.56 670.315Z" fill="#1F4159"></path>
<path d="M741.115 778.787H795.265L1188.9 1231.61H1134.75L741.115 778.787Z" fill="#1F4159"></path>
<path d="M851.409 680.952V778.787L1245.04 1231.61V1133.78L851.409 680.952Z" fill="#1F4159"></path>
<path d="M905.56 778.787V670.315L1299.2 1123.14V1231.61L905.56 778.787Z" fill="#1F4159"></path>
<path d="M851.409 778.787H905.56L1299.2 1231.61H1245.04L851.409 778.787Z" fill="#1F4159"></path>
<path d="M173.365 596.412V551.871H365.051V596.412H296.283V778.787H242.243V596.412H173.365Z" fill="white"></path>
<path d="M446.664 782C428.873 782 413.517 778.491 400.598 771.474C387.752 764.383 377.86 754.3 370.92 741.226C364.054 728.078 360.622 712.455 360.622 694.358C360.622 676.778 364.091 661.414 371.031 648.266C377.97 635.044 387.752 624.777 400.376 617.464C413 610.077 427.876 606.384 445.003 606.384C457.111 606.384 468.184 608.268 478.225 612.035C488.265 615.802 496.939 621.379 504.248 628.766C511.557 636.152 517.241 645.275 521.301 656.133C525.362 666.917 527.392 679.29 527.392 693.25V706.768H379.558V675.301H477.006C476.933 669.539 475.567 664.406 472.909 659.9C470.252 655.394 466.597 651.885 461.946 649.374C457.369 646.789 452.091 645.496 446.111 645.496C440.057 645.496 434.631 646.863 429.832 649.596C425.034 652.255 421.232 655.911 418.426 660.565C415.621 665.144 414.145 670.352 413.997 676.187V708.208C413.997 715.151 415.363 721.245 418.094 726.49C420.826 731.661 424.702 735.686 429.722 738.567C434.742 741.448 440.722 742.888 447.661 742.888C452.46 742.888 456.815 742.223 460.728 740.894C464.641 739.564 468 737.607 470.805 735.021C473.611 732.436 475.715 729.26 477.117 725.493L526.838 726.933C524.771 738.087 520.231 747.8 513.218 756.073C506.278 764.272 497.161 770.662 485.865 775.241C474.57 779.747 461.503 782 446.664 782Z" fill="white"></path>
<path d="M634.447 782C616.508 782 601.115 778.307 588.27 770.92C575.498 763.534 565.679 753.266 558.814 740.118C551.948 726.896 548.515 711.606 548.515 694.247C548.515 676.815 551.948 661.525 558.814 648.377C565.753 635.155 575.609 624.851 588.38 617.464C601.226 610.077 616.545 606.384 634.336 606.384C650.061 606.384 663.756 609.228 675.42 614.916C687.158 620.603 696.312 628.655 702.883 639.07C709.527 649.411 713.034 661.562 713.403 675.523H662.796C661.762 666.806 658.809 659.974 653.937 655.025C649.138 650.076 642.863 647.601 635.112 647.601C628.837 647.601 623.337 649.374 618.612 652.92C613.887 656.391 610.196 661.562 607.538 668.431C604.954 675.227 603.662 683.648 603.662 693.694C603.662 703.739 604.954 712.234 607.538 719.177C610.196 726.047 613.887 731.254 618.612 734.8C623.337 738.271 628.837 740.007 635.112 740.007C640.132 740.007 644.561 738.936 648.4 736.794C652.313 734.652 655.524 731.513 658.034 727.376C660.544 723.166 662.132 718.069 662.796 712.086H713.403C712.886 726.121 709.379 738.382 702.883 748.871C696.46 759.36 687.417 767.522 675.752 773.358C664.162 779.119 650.393 782 634.447 782Z" fill="white"></path>
<path d="M795.265 681.727V778.787H741.115V551.871H793.494V639.845H795.376C799.215 629.356 805.49 621.157 814.202 615.248C822.987 609.339 833.728 606.384 846.426 606.384C858.386 606.384 868.795 609.043 877.654 614.362C886.513 619.606 893.379 627.03 898.251 636.632C903.197 646.235 905.634 657.462 905.56 670.315V778.787H851.409V680.952C851.483 671.497 849.121 664.11 844.322 658.792C839.523 653.474 832.768 650.814 824.057 650.814C818.373 650.814 813.353 652.07 808.997 654.582C804.715 657.019 801.356 660.528 798.92 665.107C796.557 669.687 795.339 675.227 795.265 681.727Z" fill="white"></path>
<path d="M136.529 532.007H107.737L191.011 305.091H219.36L302.634 532.007H273.843L206.072 340.99H204.3L136.529 532.007ZM147.159 443.368H263.212V467.743H147.159V443.368Z" fill="white"></path>
<path d="M329.544 532.007V512.063L426.107 387.968V386.196H332.644V361.82H459.771V382.65L365.865 505.858V507.631H462.871V532.007H329.544Z" fill="white"></path>
<path d="M503.124 532.007V361.82H529.258V532.007H503.124ZM516.413 333.456C511.319 333.456 506.926 331.72 503.235 328.248C499.618 324.776 497.809 320.603 497.809 315.728C497.809 310.853 499.618 306.679 503.235 303.208C506.926 299.736 511.319 298 516.413 298C521.507 298 525.862 299.736 529.48 303.208C533.171 306.679 535.017 310.853 535.017 315.728C535.017 320.603 533.171 324.776 529.48 328.248C525.862 331.72 521.507 333.456 516.413 333.456Z" fill="white"></path>
<path d="M577.125 532.007V361.82H602.373V388.412H604.587C608.131 379.326 613.852 372.272 621.752 367.249C629.651 362.152 639.137 359.604 650.211 359.604C661.433 359.604 670.771 362.152 678.228 367.249C685.758 372.272 691.627 379.326 695.835 388.412H697.607C701.962 379.622 708.496 372.641 717.207 367.471C725.919 362.226 736.365 359.604 748.546 359.604C763.754 359.604 776.193 364.368 785.864 373.897C795.535 383.352 800.371 398.088 800.371 418.106V532.007H774.237V418.106C774.237 405.549 770.804 396.574 763.938 391.182C757.073 385.789 748.989 383.093 739.687 383.093C727.727 383.093 718.462 386.713 711.892 393.952C705.321 401.117 702.036 410.202 702.036 421.208V532.007H675.459V415.447C675.459 405.77 672.322 397.977 666.047 392.068C659.772 386.085 651.688 383.093 641.795 383.093C635.003 383.093 628.654 384.903 622.748 388.522C616.916 392.142 612.191 397.165 608.574 403.591C605.03 409.944 603.259 417.293 603.259 425.64V532.007H577.125Z" fill="white"></path>
<path d="M968.636 399.935L945.16 406.583C943.683 402.668 941.506 398.864 938.626 395.17C935.821 391.403 931.982 388.301 927.11 385.863C922.237 383.426 915.999 382.207 908.395 382.207C897.986 382.207 889.311 384.608 882.372 389.409C875.506 394.136 872.073 400.156 872.073 407.469C872.073 413.969 874.436 419.103 879.16 422.87C883.885 426.637 891.268 429.776 901.308 432.288L926.556 438.493C941.764 442.186 953.096 447.837 960.552 455.445C968.009 462.979 971.737 472.692 971.737 484.585C971.737 494.335 968.932 503.051 963.321 510.733C957.784 518.415 950.032 524.472 940.066 528.904C930.1 533.336 918.509 535.552 905.295 535.552C887.946 535.552 873.587 531.785 862.218 524.251C850.849 516.716 843.651 505.71 840.624 491.233L865.429 485.028C867.791 494.187 872.258 501.057 878.828 505.637C885.473 510.216 894.147 512.506 904.852 512.506C917.033 512.506 926.704 509.921 933.865 504.75C941.1 499.506 944.717 493.227 944.717 485.914C944.717 480.005 942.65 475.056 938.516 471.067C934.381 467.005 928.033 463.976 919.469 461.982L891.12 455.334C875.543 451.641 864.1 445.916 856.792 438.16C849.557 430.33 845.939 420.543 845.939 408.799C845.939 399.196 848.634 390.701 854.023 383.315C859.486 375.928 866.906 370.13 876.281 365.92C885.731 361.709 896.435 359.604 908.395 359.604C925.227 359.604 938.442 363.297 948.039 370.684C957.71 378.07 964.576 387.821 968.636 399.935Z" fill="white"></path>
</g>
</g><defs>
<clipPath id="clip0_9_429">
<rect width="1080" height="1080" fill="white"></rect>
</clipPath>
</defs></svg>